<?xml version="1.0" encoding="utf-8"?><svg version="1.1" id="Layer_1" xmlns="http://www.w3.org/2000/svg" xmlns:xlink="http://www.w3.org/1999/xlink" x="0" y="0" viewBox="0 0 390 72.7" xml:space="preserve"><style>.st0{display:none}.st1{display:inline}.st2{fill:#287abf}.st2,.st3{display:inline}.st3,.st4{fill:#fff}.st6{fill:#287abf}</style><g id="Layer_5" class="st0"><path class="st1" d="M0 0h390v72.7H0V0z"/></g><g id="_x31__x5F_black_x5F_B" class="st0"><circle class="st2" cx="178.4" cy="36.5" r="25.5"/><path class="st3" d="M182.5 23.5h-13.9l-3 3-2.5 4.8 8.9 6.2 4.8 4.9-3.1 9.4 16.6-2.1 2.2-4.9v-5l-6.7-4.8-8-3.2 1.5-5.5 3.2-2.8z"/><g class="st1"><path class="st4" d="M215 53c-1.7-.3-3-.7-4-1.2v-3.9c2.7 1.3 5.6 1.9 8.8 1.9 4.4 0 6.6-1.5 6.6-4.4 0-1-.2-1.8-.7-2.5-.5-.6-1.2-1.2-2.1-1.6-.9-.5-2.4-1.1-4.4-1.9-2.8-1.1-4.8-2.4-6.1-3.7-1.2-1.4-1.9-3.1-1.9-5.1 0-1.6.4-2.9 1.3-4.1.8-1.2 2-2.1 3.6-2.8 1.5-.7 3.3-1 5.3-1 1.6 0 3.1.1 4.4.4 1.3.3 2.6.7 3.8 1.2V28c-2.5-1.1-4.9-1.7-7.5-1.7-2 0-3.6.4-4.7 1.1-1.1.7-1.6 1.8-1.6 3.1 0 .9.2 1.7.7 2.4.5.6 1.2 1.2 2.1 1.7.9.5 2.3 1.1 4.1 1.8 2 .8 3.6 1.6 4.7 2.3 1.2.7 2 1.6 2.6 2.7.6 1.1.9 2.4.9 4 0 2.6-.9 4.6-2.8 6-1.8 1.4-4.5 2.1-8.1 2.1-1.7-.1-3.3-.2-5-.5zm27.9-1.5c-2.4-1.3-4.2-3.1-5.6-5.4-1.4-2.3-2-5-2-8s.7-5.7 2-8c1.4-2.3 3.2-4.2 5.6-5.5 2.4-1.3 5-1.9 8-1.9 2.9 0 5.6.7 8 1.9 2.4 1.3 4.2 3.1 5.6 5.5 1.4 2.3 2 5 2 8s-.7 5.7-2 8c-1.4 2.3-3.2 4.2-5.6 5.4-2.4 1.3-5 1.9-8 1.9s-5.7-.6-8-1.9zm13.6-3.4c1.7-.9 3.1-2.3 4-4 1-1.7 1.5-3.8 1.5-6.1s-.5-4.3-1.5-6-2.3-3.1-4-4c-1.7-.9-3.6-1.4-5.7-1.4s-4 .5-5.7 1.4-3.1 2.3-4.1 4c-1 1.8-1.5 3.8-1.5 6.1s.5 4.3 1.5 6.1c1 1.7 2.3 3.1 4 4s3.6 1.4 5.7 1.4c2.2-.1 4.1-.6 5.8-1.5zm18 2.2c-2.1-2.1-3.1-4.9-3.1-8.6V23.2h4.3v18.7c0 2.5.7 4.4 2.1 5.7s3.3 1.9 5.8 1.9c2.4 0 4.3-.6 5.8-1.9 1.4-1.3 2.1-3.2 2.1-5.7V23.2h4.3v18.6c0 3.6-1 6.5-3.1 8.6s-5.1 3.1-9.1 3.1c-4-.1-7.1-1.1-9.1-3.2zm27.1-27.1h11.9c3.2 0 5.6.8 7.3 2.3 1.7 1.5 2.5 3.8 2.5 6.7 0 2.2-.6 4-1.7 5.5-1.2 1.5-2.8 2.5-4.9 3.1l6.5 12h-4.5l-6.3-11.7h-6.5v11.7h-4.3V23.2zm11.2 14.2c1.9 0 3.4-.4 4.5-1.3s1.7-2.2 1.7-4c0-1.9-.5-3.3-1.6-4.1-1.1-.8-2.6-1.2-4.6-1.2h-6.9v10.6h6.9zm21.8 14.1c-2.4-1.3-4.2-3.1-5.5-5.4-1.3-2.3-2-5-2-8.1s.7-5.8 2-8.1 3.2-4.2 5.5-5.4c2.4-1.3 5.1-1.9 8.1-1.9 4.1 0 7.5 1 10.2 3.1v4.2c-2.5-2.2-5.7-3.3-9.8-3.3-2.3 0-4.3.5-6.1 1.4-1.8.9-3.1 2.3-4.1 4-1 1.7-1.5 3.8-1.5 6.1s.5 4.3 1.5 6.1 2.4 3.1 4.2 4c1.8.9 3.8 1.4 6 1.4 2.1 0 4-.3 5.6-.8 1.7-.6 3.2-1.4 4.6-2.6v4.2c-2.5 2.1-6.1 3.2-10.6 3.2-3-.2-5.7-.8-8.1-2.1zm23.9-28.3H378v3.6h-15.2v9.4h11.4v3.6h-11.4v9.4H378v3.6h-19.5V23.2z"/></g><g class="st1"><path class="st4" d="M18.5 53c-1.7-.3-3-.7-4-1.2v-3.9c2.7 1.3 5.6 1.9 8.8 1.9 4.4 0 6.6-1.5 6.6-4.4 0-1-.2-1.8-.7-2.5-.5-.6-1.2-1.2-2.1-1.6-.9-.5-2.4-1.1-4.4-1.9-2.8-1.1-4.8-2.4-6.1-3.7-1.2-1.4-1.9-3.1-1.9-5.1 0-1.6.4-2.9 1.3-4.1.8-1.2 2-2.1 3.6-2.8 1.5-.7 3.3-1 5.3-1 1.6 0 3.1.1 4.4.4s2.6.7 3.8 1.2V28c-2.5-1.1-4.9-1.7-7.5-1.7-2 0-3.6.4-4.7 1.1s-1.6 1.8-1.6 3.1c0 .9.2 1.7.7 2.4.5.6 1.2 1.2 2.1 1.7s2.3 1.1 4.1 1.8c2 .8 3.6 1.6 4.7 2.3 1.2.7 2 1.6 2.6 2.7.6 1.1.9 2.4.9 4 0 2.6-.9 4.6-2.8 6-1.8 1.4-4.5 2.1-8.1 2.1-1.7-.1-3.3-.2-5-.5zm21.1-29.8H51c3.2 0 5.7.8 7.6 2.4 1.8 1.6 2.8 3.9 2.8 6.8 0 3-.9 5.3-2.8 6.8-1.8 1.5-4.4 2.3-7.6 2.3h-7.1v11.3h-4.3V23.2zm10.9 14.7c2 0 3.5-.4 4.7-1.2s1.7-2.2 1.7-4.3-.6-3.5-1.7-4.3c-1.2-.8-2.7-1.2-4.7-1.2h-6.6V38l6.6-.1zm21.3 13.6c-2.4-1.3-4.2-3.1-5.6-5.4-1.4-2.3-2-5-2-8s.7-5.7 2-8c1.4-2.3 3.2-4.2 5.6-5.5s5-1.9 8-1.9c2.9 0 5.6.7 8 1.9 2.4 1.3 4.2 3.1 5.6 5.5 1.4 2.3 2 5 2 8s-.7 5.7-2 8c-1.4 2.3-3.2 4.2-5.6 5.4-2.4 1.3-5 1.9-8 1.9s-5.7-.6-8-1.9zm13.6-3.4c1.7-.9 3.1-2.3 4-4 1-1.7 1.5-3.8 1.5-6.1s-.5-4.3-1.5-6-2.3-3.1-4-4-3.6-1.4-5.7-1.4-4 .5-5.7 1.4-3.1 2.3-4.1 4c-1 1.8-1.5 3.8-1.5 6.1s.5 4.3 1.5 6.1c1 1.7 2.3 3.1 4 4s3.6 1.4 5.7 1.4c2.2-.1 4.1-.6 5.8-1.5zm15.1-24.9h11.9c3.2 0 5.6.8 7.3 2.3 1.7 1.5 2.5 3.8 2.5 6.7 0 2.2-.6 4-1.7 5.5-1.2 1.5-2.8 2.5-4.9 3.1l6.5 12h-4.5l-6.3-11.7h-6.5v11.7h-4.3V23.2zm11.2 14.2c1.9 0 3.4-.4 4.5-1.3s1.7-2.2 1.7-4c0-1.9-.5-3.3-1.6-4.1-1.1-.8-2.6-1.2-4.6-1.2h-6.9v10.6h6.9zm21.7-10.6h-9.2v-3.6H147v3.6h-9.2v26h-4.4v-26z"/></g><g class="st1"><defs><circle id="SVGID_1_" cx="178.4" cy="36.5" r="25.5"/></defs><clipPath id="SVGID_2_"><use xlink:href="#SVGID_1_" overflow="visible"/></clipPath><g clip-path="url(#SVGID_2_)"><path d="M166.7 26.2c1.1-.7 2.6-1.1 4.7-1.1h24.2v-3.7h-24.9c-2 0-3.7.3-5.3 1-1.5.7-2.7 1.6-3.6 2.8-.8 1.2-1.3 2.6-1.3 4.1 0 2.1.6 3.8 1.9 5.1 1.2 1.4 3.3 2.6 6.1 3.7 2 .8 3.5 1.5 4.4 1.9.9.5 1.6 1 2.1 1.6s.7 1.4.7 2.5c0 2.9-2.1 4.4-6.2 4.4h-17.6l2 3.6h15.5c3.6 0 6.3-.7 8.1-2.1 1.8-1.4 2.8-3.4 2.8-6 0-1.6-.3-2.9-.9-4-.6-1.1-1.5-2-2.6-2.7-1.2-.7-2.7-1.5-4.7-2.3-1.8-.7-3.2-1.3-4.1-1.8-.9-.5-1.6-1.1-2.1-1.7-.5-.6-.7-1.4-.7-2.3-.1-1.2.4-2.3 1.5-3z"/><path d="M181.6 26.2c1.1-.7 2.6-1.1 4.7-1.1h17.2v-3.7h-17.9c-2 0-3.7.3-5.3 1-1.5.7-2.7 1.6-3.6 2.8-.8 1.2-1.3 2.6-1.3 4.1 0 2.1.6 3.8 1.9 5.1 1.2 1.4 3.3 2.6 6.1 3.7 2 .8 3.5 1.5 4.4 1.9.9.5 1.6 1 2.1 1.6s.7 1.4.7 2.5c0 2.9-2.1 4.4-6.2 4.4h-20.6v3.6h20.5c3.6 0 6.3-.7 8.1-2.1 1.8-1.4 2.8-3.4 2.8-6 0-1.6-.3-2.9-.9-4-.6-1.1-1.5-2-2.6-2.7-1.2-.7-2.7-1.5-4.7-2.3-1.8-.7-3.2-1.3-4.1-1.8-.9-.5-1.6-1.1-2.1-1.7-.5-.6-.7-1.4-.7-2.3-.2-1.2.4-2.3 1.5-3z"/></g></g></g><g id="_x31__x5F_black_x5F_A" class="st0"><circle class="st3" cx="178.1" cy="36.1" r="25.5"/><path class="st2" d="M182.2 23h-14l-3 3-2.5 4.9 9 6.2 4.8 4.8-3.1 9.5 16.6-2.1 2.2-4.9v-5l-6.7-4.8-8-3.2 1.5-5.5 3.2-2.9z"/><g class="st1"><path class="st6" d="M215.7 52.5c-1.7-.3-3-.7-4-1.2v-3.9c2.7 1.3 5.6 1.9 8.8 1.9 4.4 0 6.6-1.5 6.6-4.4 0-1-.2-1.8-.7-2.5-.5-.6-1.2-1.2-2.1-1.6-.9-.5-2.4-1.1-4.4-1.9-2.8-1.1-4.8-2.4-6.1-3.7-1.2-1.4-1.9-3.1-1.9-5.1 0-1.6.4-2.9 1.3-4.1.8-1.2 2-2.1 3.6-2.8 1.5-.7 3.3-1 5.3-1 1.6 0 3.1.1 4.4.4 1.3.3 2.6.7 3.8 1.2v3.7c-2.5-1.1-4.9-1.7-7.5-1.7-2 0-3.6.4-4.7 1.1-1.1.7-1.6 1.8-1.6 3.1 0 .9.2 1.7.7 2.4.5.6 1.2 1.2 2.1 1.7.9.5 2.3 1.1 4.1 1.8 2 .8 3.6 1.6 4.7 2.3 1.2.7 2 1.6 2.6 2.7.6 1.1.9 2.4.9 4 0 2.6-.9 4.6-2.8 6-1.8 1.4-4.5 2.1-8.1 2.1-1.7 0-3.4-.2-5-.5zm27.8-1.5c-2.4-1.3-4.2-3.1-5.6-5.4-1.4-2.3-2-5-2-8s.7-5.7 2-8c1.4-2.3 3.2-4.2 5.6-5.5 2.4-1.3 5-1.9 8-1.9 2.9 0 5.6.7 8 1.9 2.4 1.3 4.2 3.1 5.6 5.5 1.4 2.3 2 5 2 8s-.7 5.7-2 8c-1.4 2.3-3.2 4.2-5.6 5.4-2.4 1.3-5 1.9-8 1.9-2.9.1-5.6-.6-8-1.9zm13.7-3.3c1.7-.9 3.1-2.3 4-4 1-1.7 1.5-3.8 1.5-6.1s-.5-4.3-1.5-6-2.3-3.1-4-4c-1.7-.9-3.6-1.4-5.7-1.4s-4 .5-5.7 1.4-3.1 2.3-4.1 4c-1 1.8-1.5 3.8-1.5 6.1s.5 4.3 1.5 6.1c1 1.7 2.3 3.1 4 4s3.6 1.4 5.7 1.4c2.2-.1 4.1-.6 5.8-1.5zm17.9 2.2c-2.1-2.1-3.1-4.9-3.1-8.6V22.7h4.3v18.7c0 2.5.7 4.4 2.1 5.7s3.3 1.9 5.8 1.9c2.4 0 4.3-.6 5.8-1.9 1.4-1.3 2.1-3.2 2.1-5.7V22.7h4.3v18.6c0 3.6-1 6.5-3.1 8.6s-5.1 3.1-9.1 3.1c-3.9 0-7-1.1-9.1-3.1zm27.2-27.2h11.9c3.2 0 5.6.8 7.3 2.3 1.7 1.5 2.5 3.8 2.5 6.7 0 2.2-.6 4-1.7 5.5-1.2 1.5-2.8 2.5-4.9 3.1l6.5 12h-4.5l-6.3-11.7h-6.5v11.7h-4.3V22.7zM313.5 37c1.9 0 3.4-.4 4.5-1.3s1.7-2.2 1.7-4c0-1.9-.5-3.3-1.6-4.1-1.1-.8-2.6-1.2-4.6-1.2h-6.9V37h6.9zm21.8 14.1c-2.4-1.3-4.2-3.1-5.5-5.4-1.3-2.3-2-5-2-8.1s.7-5.8 2-8.1 3.2-4.2 5.5-5.4c2.4-1.3 5.1-1.9 8.1-1.9 4.1 0 7.5 1 10.2 3.1v4.2c-2.5-2.2-5.7-3.3-9.8-3.3-2.3 0-4.3.5-6.1 1.4-1.8.9-3.1 2.3-4.1 4-1 1.7-1.5 3.8-1.5 6.1s.5 4.3 1.5 6.1 2.4 3.1 4.2 4c1.8.9 3.8 1.4 6 1.4 2.1 0 4-.3 5.6-.8 1.7-.6 3.2-1.4 4.6-2.6V50c-2.5 2.1-6.1 3.2-10.6 3.2-3.1-.2-5.8-.9-8.1-2.1zm23.8-28.4h19.5v3.6h-15.2v9.4h11.4v3.6h-11.4v9.4h15.2v3.6h-19.5V22.7z"/></g><g class="st1"><path class="st6" d="M18.2 52.5c-1.7-.3-3-.7-4-1.2v-3.9c2.7 1.3 5.6 1.9 8.8 1.9 4.4 0 6.6-1.5 6.6-4.4 0-1-.2-1.8-.7-2.5-.5-.6-1.2-1.2-2.1-1.6-.9-.5-2.4-1.1-4.4-1.9-2.8-1.1-4.8-2.4-6.1-3.7-1.2-1.4-1.9-3.1-1.9-5.1 0-1.6.4-2.9 1.3-4.1.8-1.2 2-2.1 3.6-2.8 1.5-.7 3.3-1 5.3-1 1.6 0 3.1.1 4.4.4s2.6.7 3.8 1.2v3.7c-2.5-1.1-4.9-1.7-7.5-1.7-2 0-3.6.4-4.7 1.1S19 28.7 19 30c0 .9.2 1.7.7 2.4.5.6 1.2 1.2 2.1 1.7s2.3 1.1 4.1 1.8c2 .8 3.6 1.6 4.7 2.3 1.2.7 2 1.6 2.6 2.7.6 1.1.9 2.4.9 4 0 2.6-.9 4.6-2.8 6-1.8 1.4-4.5 2.1-8.1 2.1-1.7 0-3.4-.2-5-.5zm21-29.8h11.4c3.2 0 5.7.8 7.6 2.4C60 26.7 61 29 61 31.9c0 3-.9 5.3-2.8 6.8-1.8 1.5-4.4 2.3-7.6 2.3h-7.1v11.3h-4.3V22.7zm11 14.7c2 0 3.5-.4 4.7-1.2s1.7-2.2 1.7-4.3-.6-3.5-1.7-4.3c-1.2-.8-2.7-1.2-4.7-1.2h-6.6v11.1l6.6-.1zM71.4 51c-2.4-1.3-4.2-3.1-5.6-5.4-1.4-2.3-2-5-2-8s.7-5.7 2-8c1.4-2.3 3.2-4.2 5.6-5.5s5-1.9 8-1.9c2.9 0 5.6.7 8 1.9 2.4 1.3 4.2 3.1 5.6 5.5 1.4 2.3 2 5 2 8s-.7 5.7-2 8c-1.4 2.3-3.2 4.2-5.6 5.4-2.4 1.3-5 1.9-8 1.9-2.9.1-5.6-.6-8-1.9zm13.7-3.3c1.7-.9 3.1-2.3 4-4 1-1.7 1.5-3.8 1.5-6.1s-.5-4.3-1.5-6-2.3-3.1-4-4-3.6-1.4-5.7-1.4-4 .5-5.7 1.4-3.1 2.3-4.1 4c-1 1.8-1.5 3.8-1.5 6.1s.5 4.3 1.5 6.1c1 1.7 2.3 3.1 4 4s3.6 1.4 5.7 1.4c2.2-.1 4.1-.6 5.8-1.5zm15.1-25h11.9c3.2 0 5.6.8 7.3 2.3 1.7 1.5 2.5 3.8 2.5 6.7 0 2.2-.6 4-1.7 5.5-1.2 1.5-2.8 2.5-4.9 3.1l6.5 12h-4.5L111 40.6h-6.5v11.7h-4.3V22.7zM111.3 37c1.9 0 3.4-.4 4.5-1.3s1.7-2.2 1.7-4c0-1.9-.5-3.3-1.6-4.1-1.1-.8-2.6-1.2-4.6-1.2h-6.9V37h6.9zm21.8-10.6h-9.2v-3.6h22.7v3.6h-9.2v26H133v-26h.1z"/></g><g class="st1"><defs><circle id="SVGID_3_" cx="178.1" cy="36.1" r="25.5"/></defs><clipPath id="SVGID_4_"><use xlink:href="#SVGID_3_" overflow="visible"/></clipPath><g clip-path="url(#SVGID_4_)"><path d="M166.4 25.7c1.1-.7 2.6-1.1 4.7-1.1h24.2V21h-24.9c-2 0-3.7.3-5.3 1-1.5.7-2.7 1.6-3.6 2.8-.8 1.2-1.3 2.6-1.3 4.1 0 2.1.6 3.8 1.9 5.1 1.2 1.4 3.3 2.6 6.1 3.7 2 .8 3.5 1.5 4.4 1.9.9.5 1.6 1 2.1 1.6s.7 1.4.7 2.5c0 2.9-2.1 4.4-6.2 4.4h-17.6l2 3.6h15.5c3.6 0 6.3-.7 8.1-2.1 1.8-1.4 2.8-3.4 2.8-6 0-1.6-.3-2.9-.9-4-.6-1.1-1.5-2-2.6-2.7-1.2-.7-2.7-1.5-4.7-2.3-1.8-.7-3.2-1.3-4.1-1.8-.9-.5-1.6-1.1-2.1-1.7s-.7-1.4-.7-2.3c-.1-1.3.4-2.3 1.5-3.1z"/><path d="M181.2 25.7c1.1-.7 2.6-1.1 4.7-1.1h17.2V21h-17.9c-2 0-3.7.3-5.3 1-1.5.7-2.7 1.6-3.6 2.8-.8 1.2-1.3 2.6-1.3 4.1 0 2.1.6 3.8 1.9 5.1 1.2 1.4 3.3 2.6 6.1 3.7 2 .8 3.5 1.5 4.4 1.9.9.5 1.6 1 2.1 1.6s.7 1.4.7 2.5c0 2.9-2.1 4.4-6.2 4.4h-20.6v3.6h20.5c3.6 0 6.3-.7 8.1-2.1 1.8-1.4 2.8-3.4 2.8-6 0-1.6-.3-2.9-.9-4-.6-1.1-1.5-2-2.6-2.7-1.2-.7-2.7-1.5-4.7-2.3-1.8-.7-3.2-1.3-4.1-1.8-.9-.5-1.6-1.1-2.1-1.7s-.7-1.4-.7-2.3c-.1-1.3.5-2.3 1.5-3.1z"/></g></g></g><g id="_x32__x5F_Black" class="st0"><circle class="st2" cx="178.1" cy="34.6" r="28.5"/><g class="st1"><path class="st4" d="M215.7 52.7c-1.7-.3-3-.7-4-1.2v-3.9c2.7 1.3 5.6 1.9 8.8 1.9 4.4 0 6.6-1.5 6.6-4.4 0-1-.2-1.8-.7-2.5-.5-.6-1.2-1.2-2.1-1.6-.9-.5-2.4-1.1-4.4-1.9-2.8-1.1-4.8-2.4-6.1-3.7-1.2-1.4-1.9-3.1-1.9-5.1 0-1.6.4-2.9 1.3-4.1.8-1.2 2-2.1 3.6-2.8 1.5-.7 3.3-1 5.3-1 1.6 0 3.1.1 4.4.4 1.3.3 2.6.7 3.8 1.2v3.7c-2.5-1.1-4.9-1.7-7.5-1.7-2 0-3.6.4-4.7 1.1-1.1.7-1.6 1.8-1.6 3.1 0 .9.2 1.7.7 2.4.5.6 1.2 1.2 2.1 1.7.9.5 2.3 1.1 4.1 1.8 2 .8 3.6 1.6 4.7 2.3 1.2.7 2 1.6 2.6 2.7.6 1.1.9 2.4.9 4 0 2.6-.9 4.6-2.8 6-1.8 1.4-4.5 2.1-8.1 2.1-1.7 0-3.3-.2-5-.5zm27.9-1.4c-2.4-1.3-4.2-3.1-5.6-5.4-1.4-2.3-2-5-2-8s.7-5.7 2-8c1.4-2.3 3.2-4.2 5.6-5.5 2.4-1.3 5-1.9 8-1.9 2.9 0 5.6.7 8 1.9 2.4 1.3 4.2 3.1 5.6 5.5 1.4 2.3 2 5 2 8s-.7 5.7-2 8c-1.4 2.3-3.2 4.2-5.6 5.4-2.4 1.3-5 1.9-8 1.9s-5.7-.6-8-1.9zm13.6-3.4c1.7-.9 3.1-2.3 4-4 1-1.7 1.5-3.8 1.5-6.1s-.5-4.3-1.5-6-2.3-3.1-4-4c-1.7-.9-3.6-1.4-5.7-1.4s-4 .5-5.7 1.4-3.1 2.3-4.1 4c-1 1.8-1.5 3.8-1.5 6.1s.5 4.3 1.5 6.1c1 1.7 2.3 3.1 4 4s3.6 1.4 5.7 1.4c2.2-.1 4.1-.6 5.8-1.5zm18 2.2c-2.1-2.1-3.1-4.9-3.1-8.6V22.9h4.3v18.7c0 2.5.7 4.4 2.1 5.7s3.3 1.9 5.8 1.9c2.4 0 4.3-.6 5.8-1.9 1.4-1.3 2.1-3.2 2.1-5.7V22.9h4.3v18.6c0 3.6-1 6.5-3.1 8.6s-5.1 3.1-9.1 3.1-7.1-1-9.1-3.1zm27.1-27.2h11.9c3.2 0 5.6.8 7.3 2.3 1.7 1.5 2.5 3.8 2.5 6.7 0 2.2-.6 4-1.7 5.5-1.2 1.5-2.8 2.5-4.9 3.1l6.5 12h-4.5l-6.3-11.7h-6.5v11.7h-4.3V22.9zm11.2 14.3c1.9 0 3.4-.4 4.5-1.3s1.7-2.2 1.7-4c0-1.9-.5-3.3-1.6-4.1-1.1-.8-2.6-1.2-4.6-1.2h-6.9v10.6h6.9zm21.8 14.1c-2.4-1.3-4.2-3.1-5.5-5.4-1.3-2.3-2-5-2-8.1 0-3.1.7-5.8 2-8.1s3.2-4.2 5.5-5.4c2.4-1.3 5.1-1.9 8.1-1.9 4.1 0 7.5 1 10.2 3.1v4.2c-2.5-2.2-5.7-3.3-9.8-3.3-2.3 0-4.3.5-6.1 1.4-1.8.9-3.1 2.3-4.1 4-1 1.7-1.5 3.8-1.5 6.1s.5 4.3 1.5 6.1 2.4 3.1 4.2 4c1.8.9 3.8 1.4 6 1.4 2.1 0 4-.3 5.6-.8 1.7-.6 3.2-1.4 4.6-2.6v4c-2.5 2.1-6.1 3.2-10.6 3.2-3.1 0-5.8-.6-8.1-1.9zm23.9-28.4h19.5v3.6h-15.2V36h11.4v3.6h-11.4V49h15.2v3.6h-19.5V22.9z"/></g><g class="st1"><path class="st4" d="M17.2 52.7c-1.7-.3-3-.7-4-1.2v-3.9c2.7 1.3 5.6 1.9 8.8 1.9 4.4 0 6.6-1.5 6.6-4.4 0-1-.2-1.8-.7-2.5-.5-.6-1.2-1.2-2.1-1.6-.9-.5-2.4-1.1-4.4-1.9-2.8-1.1-4.8-2.4-6.1-3.7-1.2-1.4-1.9-3.1-1.9-5.1 0-1.6.4-2.9 1.3-4.1.8-1.2 2-2.1 3.6-2.8 1.5-.7 3.3-1 5.3-1 1.6 0 3.1.1 4.4.4s2.6.7 3.8 1.2v3.7c-2.5-1.1-4.9-1.7-7.5-1.7-2 0-3.6.4-4.7 1.1-1.1.7-1.6 1.8-1.6 3.1 0 .9.2 1.7.7 2.4.5.6 1.2 1.2 2.1 1.7s2.3 1.1 4.1 1.8c2 .8 3.6 1.6 4.7 2.3 1.2.7 2 1.6 2.6 2.7.6 1.1.9 2.4.9 4 0 2.6-.9 4.6-2.8 6-1.8 1.4-4.5 2.1-8.1 2.1-1.7 0-3.4-.2-5-.5zm21-29.8h11.4c3.2 0 5.7.8 7.6 2.4 1.8 1.6 2.8 3.9 2.8 6.8 0 3-.9 5.3-2.8 6.8-1.8 1.5-4.4 2.3-7.6 2.3h-7.1v11.3h-4.3V22.9zm11 14.7c2 0 3.5-.4 4.7-1.2s1.7-2.2 1.7-4.3c0-2-.6-3.5-1.7-4.3-1.2-.8-2.7-1.2-4.7-1.2h-6.6v11.1l6.6-.1zm21.2 13.7c-2.4-1.3-4.2-3.1-5.6-5.4-1.4-2.3-2-5-2-8s.7-5.7 2-8c1.4-2.3 3.2-4.2 5.6-5.5s5-1.9 8-1.9c2.9 0 5.6.7 8 1.9 2.4 1.3 4.2 3.1 5.6 5.5 1.4 2.3 2 5 2 8s-.7 5.7-2 8c-1.4 2.3-3.2 4.2-5.6 5.4-2.4 1.3-5 1.9-8 1.9-2.9 0-5.6-.6-8-1.9zm13.7-3.4c1.7-.9 3.1-2.3 4-4 1-1.7 1.5-3.8 1.5-6.1s-.5-4.3-1.5-6-2.3-3.1-4-4-3.6-1.4-5.7-1.4-4 .5-5.7 1.4-3.1 2.3-4.1 4c-1 1.8-1.5 3.8-1.5 6.1s.5 4.3 1.5 6.1c1 1.7 2.3 3.1 4 4s3.6 1.4 5.7 1.4c2.2-.1 4.1-.6 5.8-1.5zm15.1-25h11.9c3.2 0 5.6.8 7.3 2.3 1.7 1.5 2.5 3.8 2.5 6.7 0 2.2-.6 4-1.7 5.5-1.2 1.5-2.8 2.5-4.9 3.1l6.5 12h-4.5L110 40.9h-6.5v11.7h-4.3V22.9zm11.1 14.3c1.9 0 3.4-.4 4.5-1.3s1.7-2.2 1.7-4c0-1.9-.5-3.3-1.6-4.1-1.1-.8-2.6-1.2-4.6-1.2h-6.9v10.6h6.9zm21.8-10.6h-9.2V23h22.7v3.6h-9.2v26H132v-26h.1z"/></g><g class="st1"><defs><circle id="SVGID_5_" cx="178.1" cy="34.6" r="28.5"/></defs><clipPath id="SVGID_6_"><use xlink:href="#SVGID_5_" overflow="visible"/></clipPath><g clip-path="url(#SVGID_6_)"><path d="M181.6 21.3h-9.4l-7 4 1.6 5.8 8.9 6.2 4.8 2.9-3.1 9.4 8.7-1 6.7-4.6-3.2-5.4-7.8-4.7-5.8-5.4.8-4.5 4.8-2.7z"/><path d="M180.1 24c1.1-.7 2.6-1.1 4.7-1.1H209v-3.7h-23.9c-2 0-3.7.3-5.3 1-1.5.7-2.7 1.6-3.6 2.8-.8 1.2-1.3 2.6-1.3 4.1 0 2.1.6 3.8 1.9 5.1 1.2 1.4 3.3 2.6 6.1 3.7 2 .8 3.5 1.5 4.4 1.9.9.5 1.6 1 2.1 1.6s.7 1.4.7 2.5c0 2.9-3.1 4.4-7.2 4.4h-17.6l2 3.6h15.5c3.6 0 6.3-.7 8.1-2.1 1.8-1.4 2.8-3.4 2.8-6 0-1.6-.3-2.9-.9-4-.6-1.1-1.5-2-2.6-2.7-1.2-.7-2.7-1.5-4.7-2.3-1.8-.7-3.2-1.3-4.1-1.8-.9-.5-1.6-1.1-2.1-1.7s-.7-1.4-.7-2.3c-.1-1.3.5-2.3 1.5-3z"/><path d="M167.6 24c1.1-.7 2.6-1.1 4.7-1.1h24.2v-3.7h-23.9c-2 0-3.7.3-5.3 1-1.5.7-2.7 1.6-3.6 2.8-.8 1.2-1.3 2.6-1.3 4.1 0 2.1.6 3.8 1.9 5.1 1.2 1.4 3.3 2.6 6.1 3.7 2 .8 3.5 1.5 4.4 1.9.9.5 1.6 1 2.1 1.6s.7 1.4.7 2.5c0 2.9-3.1 4.4-7.2 4.4h-21.6l2 3.6h19.5c3.6 0 6.3-.7 8.1-2.1 1.8-1.4 2.8-3.4 2.8-6 0-1.6-.3-2.9-.9-4-.6-1.1-1.5-2-2.6-2.7-1.2-.7-2.7-1.5-4.7-2.3-1.8-.7-3.2-1.3-4.1-1.8-.9-.5-1.6-1.1-2.1-1.7s-.7-1.4-.7-2.3c-.1-1.3.4-2.3 1.5-3z"/></g></g></g><g id="_x33_" class="st0"><g class="st1"><path id="reuse-0" d="M206.5 36.6c0 15.7-12.7 28.5-28.5 28.5-15.7 0-28.5-12.7-28.5-28.5 0-15.7 12.7-28.5 28.5-28.5s28.5 12.7 28.5 28.5z"/></g><path class="st2" d="M187.2 24.2l-22-1.7-3 3-2.5 4.9 9 6.2 4.8 4.8-3.1 9.5h18.7l5.9-7.5v-5l-12.5-4.3v-4.3l1.3-7.3 3.4 1.7z"/><g class="st1"><path class="st6" d="M216.7 52c-1.7-.3-3-.7-4-1.2v-3.9c2.7 1.3 5.6 1.9 8.8 1.9 4.4 0 6.6-1.5 6.6-4.4 0-1-.2-1.8-.7-2.5-.5-.6-1.2-1.2-2.1-1.6-.9-.5-2.4-1.1-4.4-1.9-2.8-1.1-4.8-2.4-6.1-3.7-1.2-1.4-1.9-3.1-1.9-5.1 0-1.6.4-2.9 1.3-4.1.8-1.2 2-2.1 3.6-2.8 1.5-.7 3.3-1 5.3-1 1.6 0 3.1.1 4.4.4 1.3.3 2.6.7 3.8 1.2V27c-2.5-1.1-4.9-1.7-7.5-1.7-2 0-3.6.4-4.7 1.1-1.1.7-1.6 1.8-1.6 3.1 0 .9.2 1.7.7 2.4.5.6 1.2 1.2 2.1 1.7.9.5 2.3 1.1 4.1 1.8 2 .8 3.6 1.6 4.7 2.3 1.2.7 2 1.6 2.6 2.7.6 1.1.9 2.4.9 4 0 2.6-.9 4.6-2.8 6-1.8 1.4-4.5 2.1-8.1 2.1-1.7 0-3.4-.2-5-.5zm27.8-1.5c-2.4-1.3-4.2-3.1-5.6-5.4-1.4-2.3-2-5-2-8s.7-5.7 2-8c1.4-2.3 3.2-4.2 5.6-5.5 2.4-1.3 5-1.9 8-1.9 2.9 0 5.6.7 8 1.9 2.4 1.3 4.2 3.1 5.6 5.5 1.4 2.3 2 5 2 8s-.7 5.7-2 8c-1.4 2.3-3.2 4.2-5.6 5.4-2.4 1.3-5 1.9-8 1.9-2.9.1-5.6-.6-8-1.9zm13.7-3.3c1.7-.9 3.1-2.3 4-4 1-1.7 1.5-3.8 1.5-6.1s-.5-4.3-1.5-6-2.3-3.1-4-4-3.6-1.4-5.7-1.4-4 .5-5.7 1.4-3.1 2.3-4.1 4c-1 1.8-1.5 3.8-1.5 6.1s.5 4.3 1.5 6.1c1 1.7 2.3 3.1 4 4s3.6 1.4 5.7 1.4c2.2-.1 4.1-.6 5.8-1.5zm17.9 2.2c-2.1-2.1-3.1-4.9-3.1-8.6V22.2h4.3V41c0 2.5.7 4.4 2.1 5.7s3.3 1.9 5.8 1.9c2.4 0 4.3-.6 5.8-1.9 1.4-1.3 2.1-3.2 2.1-5.7V22.2h4.3v18.6c0 3.6-1 6.5-3.1 8.6s-5.1 3.1-9.1 3.1c-3.9 0-7-1.1-9.1-3.1zm27.2-27.2h11.9c3.2 0 5.6.8 7.3 2.3 1.7 1.5 2.5 3.8 2.5 6.7 0 2.2-.6 4-1.7 5.5-1.2 1.5-2.8 2.5-4.9 3.1l6.5 12h-4.5l-6.3-11.7h-6.5v11.7h-4.3V22.2zm11.2 14.3c1.9 0 3.4-.4 4.5-1.3s1.7-2.2 1.7-4c0-1.9-.5-3.3-1.6-4.1-1.1-.8-2.6-1.2-4.6-1.2h-6.9v10.6h6.9zm21.8 14.1c-2.4-1.3-4.2-3.1-5.5-5.4-1.3-2.3-2-5-2-8.1s.7-5.8 2-8.1 3.2-4.2 5.5-5.4c2.4-1.3 5.1-1.9 8.1-1.9 4.1 0 7.5 1 10.2 3.1V29c-2.5-2.2-5.7-3.3-9.8-3.3-2.3 0-4.3.5-6.1 1.4-1.8.9-3.1 2.3-4.1 4-1 1.7-1.5 3.8-1.5 6.1s.5 4.3 1.5 6.1 2.4 3.1 4.2 4c1.8.9 3.8 1.4 6 1.4 2.1 0 4-.3 5.6-.8 1.7-.6 3.2-1.4 4.6-2.6v4.2c-2.5 2.1-6.1 3.2-10.6 3.2-3.1-.2-5.8-.9-8.1-2.1zm23.8-28.4h19.5v3.6h-15.2v9.4h11.4v3.6h-11.4v9.4h15.2v3.6h-19.5V22.2z"/></g><g class="st1"><path class="st6" d="M17.2 52c-1.7-.3-3-.7-4-1.2v-3.9c2.7 1.3 5.6 1.9 8.8 1.9 4.4 0 6.6-1.5 6.6-4.4 0-1-.2-1.8-.7-2.5-.5-.6-1.2-1.2-2.1-1.6-.9-.5-2.4-1.1-4.4-1.9-2.8-1.1-4.8-2.4-6.1-3.7-1.2-1.4-1.9-3.1-1.9-5.1 0-1.6.4-2.9 1.3-4.1.8-1.2 2-2.1 3.6-2.8 1.5-.7 3.3-1 5.3-1 1.6 0 3.1.1 4.4.4s2.6.7 3.8 1.2V27c-2.5-1.1-4.9-1.7-7.5-1.7-2 0-3.6.4-4.7 1.1-1.1.7-1.6 1.8-1.6 3.1 0 .9.2 1.7.7 2.4.5.6 1.2 1.2 2.1 1.7s2.3 1.1 4.1 1.8c2 .8 3.6 1.6 4.7 2.3 1.2.7 2 1.6 2.6 2.7.6 1.1.9 2.4.9 4 0 2.6-.9 4.6-2.8 6-1.8 1.4-4.5 2.1-8.1 2.1-1.7 0-3.4-.2-5-.5zm21-29.8h11.4c3.2 0 5.7.8 7.6 2.4 1.8 1.6 2.8 3.9 2.8 6.8 0 3-.9 5.3-2.8 6.8-1.8 1.5-4.4 2.3-7.6 2.3h-7.1v11.3h-4.3V22.2zm11 14.7c2 0 3.5-.4 4.7-1.2s1.7-2.2 1.7-4.3-.6-3.4-1.7-4.3c-1.2-.8-2.7-1.2-4.7-1.2h-6.6V37l6.6-.1zm21.2 13.6c-2.4-1.3-4.2-3.1-5.6-5.4-1.4-2.3-2-5-2-8s.7-5.7 2-8c1.4-2.3 3.2-4.2 5.6-5.5s5-1.9 8-1.9c2.9 0 5.6.7 8 1.9 2.4 1.3 4.2 3.1 5.6 5.5 1.4 2.3 2 5 2 8s-.7 5.7-2 8c-1.4 2.3-3.2 4.2-5.6 5.4-2.4 1.3-5 1.9-8 1.9-2.9.1-5.6-.6-8-1.9zm13.7-3.3c1.7-.9 3.1-2.3 4-4 1-1.7 1.5-3.8 1.5-6.1s-.5-4.3-1.5-6-2.3-3.1-4-4-3.6-1.4-5.7-1.4-4 .5-5.7 1.4-3.1 2.3-4.1 4c-1 1.8-1.5 3.8-1.5 6.1s.5 4.3 1.5 6.1c1 1.7 2.3 3.1 4 4s3.6 1.4 5.7 1.4c2.2-.1 4.1-.6 5.8-1.5zm15.1-25h11.9c3.2 0 5.6.8 7.3 2.3 1.7 1.5 2.5 3.8 2.5 6.7 0 2.2-.6 4-1.7 5.5-1.2 1.5-2.8 2.5-4.9 3.1l6.5 12h-4.5L110 40.1h-6.5v11.7h-4.3V22.2zm11.1 14.3c1.9 0 3.4-.4 4.5-1.3s1.7-2.2 1.7-4c0-1.9-.5-3.3-1.6-4.1-1.1-.8-2.6-1.2-4.6-1.2h-6.9v10.6h6.9zm21.8-10.6h-9.2v-3.6h22.7v3.6h-9.2v26H132v-26h.1z"/></g><g class="st1"><path class="st4" d="M163.4 25.2c1.1-.7 2.6-1.1 4.7-1.1h24.2v-3.7h-24.9c-2 0-3.7.3-5.3 1-1.5.7-2.7 1.6-3.6 2.8-.8 1.2-1.3 2.6-1.3 4.1 0 2.1.6 3.8 1.9 5.1 1.2 1.4 3.3 2.6 6.1 3.7 2 .8 3.5 1.5 4.4 1.9.9.5 1.6 1 2.1 1.6s.7 1.4.7 2.5c0 2.9-2.1 4.4-6.2 4.4h-17.6l2 3.6h15.5c3.6 0 6.3-.7 8.1-2.1 1.8-1.4 2.8-3.4 2.8-6 0-1.6-.3-2.9-.9-4-.6-1.1-1.5-2-2.6-2.7-1.2-.7-2.7-1.5-4.7-2.3-1.8-.7-3.2-1.3-4.1-1.8-.9-.5-1.6-1.1-2.1-1.7s-.7-1.4-.7-2.3c-.1-1.2.4-2.2 1.5-3z"/><path class="st4" d="M184.2 25.2c1.1-.7 2.6-1.1 4.7-1.1h17.2v-3.7h-17.9c-2 0-3.7.3-5.3 1-1.5.7-2.7 1.6-3.6 2.8-.8 1.2-1.3 2.6-1.3 4.1 0 2.1.6 3.8 1.9 5.1 1.2 1.4 3.3 2.6 6.1 3.7 2 .8 3.5 1.5 4.4 1.9.9.5 1.6 1 2.1 1.6s.7 1.4.7 2.5c0 2.9-2.1 4.4-6.2 4.4h-20.6v3.6h20.5c3.6 0 6.3-.7 8.1-2.1 1.8-1.4 2.8-3.4 2.8-6 0-1.6-.3-2.9-.9-4-.6-1.1-1.5-2-2.6-2.7-1.2-.7-2.7-1.5-4.7-2.3-1.8-.7-3.2-1.3-4.1-1.8-.9-.5-1.6-1.1-2.1-1.7s-.7-1.4-.7-2.3c-.1-1.2.5-2.2 1.5-3z"/></g></g><g id="_x32_" class="st0"><circle class="st1" cx="178.7" cy="36.9" r="28.5"/><path class="st3" d="M182.3 22.9h-9.4l-7 4 1.5 5.9 8.9 6.1 4.8 2.9-3.1 9.4 8.8-.9 6.6-4.7-3.1-5.3-7.9-4.8-5.7-5.4.7-4.5 4.9-2.7z"/><g class="st1"><path class="st6" d="M216.4 52.4c-1.7-.3-3-.7-4-1.2v-3.9c2.7 1.3 5.6 1.9 8.8 1.9 4.4 0 6.6-1.5 6.6-4.4 0-1-.2-1.8-.7-2.5-.5-.6-1.2-1.2-2.1-1.6-.9-.5-2.4-1.1-4.4-1.9-2.8-1.1-4.8-2.4-6.1-3.7-1.2-1.4-1.9-3.1-1.9-5.1 0-1.6.4-2.9 1.3-4.1.8-1.2 2-2.1 3.6-2.8 1.5-.7 3.3-1 5.3-1 1.6 0 3.1.1 4.4.4 1.3.3 2.6.7 3.8 1.2v3.7c-2.5-1.1-4.9-1.7-7.5-1.7-2 0-3.6.4-4.7 1.1-1.1.7-1.6 1.8-1.6 3.1 0 .9.2 1.7.7 2.4.5.6 1.2 1.2 2.1 1.7.9.5 2.3 1.1 4.1 1.8 2 .8 3.6 1.6 4.7 2.3 1.2.7 2 1.6 2.6 2.7.6 1.1.9 2.4.9 4 0 2.6-.9 4.6-2.8 6-1.8 1.4-4.5 2.1-8.1 2.1-1.7-.1-3.4-.2-5-.5zm27.8-1.5c-2.4-1.3-4.2-3.1-5.6-5.4-1.4-2.3-2-5-2-8s.7-5.7 2-8c1.4-2.3 3.2-4.2 5.6-5.5 2.4-1.3 5-1.9 8-1.9 2.9 0 5.6.7 8 1.9 2.4 1.3 4.2 3.1 5.6 5.5 1.4 2.3 2 5 2 8s-.7 5.7-2 8c-1.4 2.3-3.2 4.2-5.6 5.4-2.4 1.3-5 1.9-8 1.9s-5.6-.6-8-1.9zm13.7-3.4c1.7-.9 3.1-2.3 4-4 1-1.7 1.5-3.8 1.5-6.1s-.5-4.3-1.5-6-2.3-3.1-4-4-3.6-1.4-5.7-1.4-4 .5-5.7 1.4-3.1 2.3-4.1 4c-1 1.8-1.5 3.8-1.5 6.1s.5 4.3 1.5 6.1c1 1.7 2.3 3.1 4 4s3.6 1.4 5.7 1.4c2.2-.1 4.1-.5 5.8-1.5zm17.9 2.2c-2.1-2.1-3.1-4.9-3.1-8.6V22.6h4.3v18.7c0 2.5.7 4.4 2.1 5.7s3.3 1.9 5.8 1.9c2.4 0 4.3-.6 5.8-1.9 1.4-1.3 2.1-3.2 2.1-5.7V22.6h4.3v18.6c0 3.6-1 6.5-3.1 8.6-2.1 2.1-5.1 3.1-9.1 3.1-4-.1-7-1.1-9.1-3.2zM303 22.6h11.9c3.2 0 5.6.8 7.3 2.3 1.7 1.5 2.5 3.8 2.5 6.7 0 2.2-.6 4-1.7 5.5-1.2 1.5-2.8 2.5-4.9 3.1l6.5 12h-4.5l-6.3-11.7h-6.5v11.7H303V22.6zm11.1 14.3c1.9 0 3.4-.4 4.5-1.3s1.7-2.2 1.7-4c0-1.9-.5-3.3-1.6-4.1-1.1-.8-2.6-1.2-4.6-1.2h-6.9v10.6h6.9zm21.8 14c-2.4-1.3-4.2-3.1-5.5-5.4-1.3-2.3-2-5-2-8.1s.7-5.8 2-8.1 3.2-4.2 5.5-5.4c2.4-1.3 5.1-1.9 8.1-1.9 4.1 0 7.5 1 10.2 3.1v4.2c-2.5-2.2-5.7-3.3-9.8-3.3-2.3 0-4.3.5-6.1 1.4-1.8.9-3.1 2.3-4.1 4-1 1.7-1.5 3.8-1.5 6.1s.5 4.3 1.5 6.1 2.4 3.1 4.2 4c1.8.9 3.8 1.4 6 1.4 2.1 0 4-.3 5.6-.8 1.7-.6 3.2-1.4 4.6-2.6v4.2c-2.5 2.1-6.1 3.2-10.6 3.2-3-.2-5.7-.8-8.1-2.1zm23.9-28.3h19.5v3.6h-15.2v9.4h11.4v3.6h-11.4v9.4h15.2v3.6h-19.5V22.6z"/></g><g class="st1"><path class="st6" d="M16.8 52.4c-1.7-.3-3-.7-4-1.2v-3.9c2.7 1.3 5.6 1.9 8.8 1.9 4.4 0 6.6-1.5 6.6-4.4 0-1-.2-1.8-.7-2.5-.5-.6-1.2-1.2-2.1-1.6-.9-.5-2.4-1.1-4.4-1.9-2.8-1.1-4.8-2.4-6.1-3.7C13.7 33.7 13 32 13 30c0-1.6.4-2.9 1.3-4.1.8-1.2 2-2.1 3.6-2.8 1.5-.7 3.3-1 5.3-1 1.6 0 3.1.1 4.4.4s2.6.7 3.8 1.2v3.7c-2.5-1.1-4.9-1.7-7.5-1.7-2 0-3.6.4-4.7 1.1-1.1.7-1.6 1.8-1.6 3.1 0 .9.2 1.7.7 2.4.5.6 1.2 1.2 2.1 1.7s2.3 1.1 4.1 1.8c2 .8 3.6 1.6 4.7 2.3 1.2.7 2 1.6 2.6 2.7.6 1.1.9 2.4.9 4 0 2.6-.9 4.6-2.8 6-1.8 1.4-4.5 2.1-8.1 2.1-1.6-.1-3.3-.2-5-.5zm21.1-29.8h11.4c3.2 0 5.7.8 7.6 2.4 1.8 1.6 2.8 3.9 2.8 6.8 0 3-.9 5.3-2.8 6.8-1.8 1.5-4.4 2.3-7.6 2.3h-7.1v11.3h-4.3V22.6zm10.9 14.7c2 0 3.5-.4 4.7-1.2s1.7-2.2 1.7-4.3-.6-3.5-1.7-4.3c-1.2-.8-2.7-1.2-4.7-1.2h-6.6v11.1h6.6v-.1zm21.3 13.6c-2.4-1.3-4.2-3.1-5.6-5.4-1.4-2.3-2-5-2-8s.7-5.7 2-8c1.4-2.3 3.2-4.2 5.6-5.5s5-1.9 8-1.9c2.9 0 5.6.7 8 1.9 2.4 1.3 4.2 3.1 5.6 5.5 1.4 2.3 2 5 2 8s-.7 5.7-2 8c-1.4 2.3-3.2 4.2-5.6 5.4-2.4 1.3-5 1.9-8 1.9s-5.6-.6-8-1.9zm13.7-3.4c1.7-.9 3.1-2.3 4-4 1-1.7 1.5-3.8 1.5-6.1s-.5-4.3-1.5-6-2.3-3.1-4-4-3.6-1.4-5.7-1.4-4 .5-5.7 1.4-3.1 2.3-4.1 4c-1 1.8-1.5 3.8-1.5 6.1s.5 4.3 1.5 6.1c1 1.7 2.3 3.1 4 4S75.9 49 78 49c2.2-.1 4.1-.5 5.8-1.5zm15-24.9h11.9c3.2 0 5.6.8 7.3 2.3 1.7 1.5 2.5 3.8 2.5 6.7 0 2.2-.6 4-1.7 5.5-1.2 1.5-2.8 2.5-4.9 3.1l6.5 12h-4.5l-6.3-11.7h-6.5v11.7h-4.3V22.6zM110 36.9c1.9 0 3.4-.4 4.5-1.3s1.7-2.2 1.7-4c0-1.9-.5-3.3-1.6-4.1-1.1-.8-2.6-1.2-4.6-1.2h-6.9v10.6h6.9zm21.7-10.7h-9.2v-3.6h22.7v3.6H136v26h-4.4l.1-26z"/></g><g class="st1"><defs><circle id="SVGID_7_" cx="178.7" cy="36.9" r="28.5"/></defs><clipPath id="SVGID_8_"><use xlink:href="#SVGID_7_" overflow="visible"/></clipPath><g clip-path="url(#SVGID_8_)"><path class="st4" d="M180.8 25.6c1.1-.7 2.6-1.1 4.7-1.1h24.2v-3.7h-23.9c-2 0-3.7.3-5.3 1-1.5.7-2.7 1.6-3.6 2.8-.8 1.2-1.3 2.6-1.3 4.1 0 2.1.6 3.8 1.9 5.1 1.2 1.4 3.3 2.6 6.1 3.7 2 .8 3.5 1.5 4.4 1.9.9.5 1.6 1 2.1 1.6s.7 1.4.7 2.5c0 2.9-3.1 4.4-7.2 4.4H166l2 3.6h15.5c3.6 0 6.3-.7 8.1-2.1 1.8-1.4 2.8-3.4 2.8-6 0-1.6-.3-2.9-.9-4-.6-1.1-1.5-2-2.6-2.7-1.2-.7-2.7-1.5-4.7-2.3-1.8-.7-3.2-1.3-4.1-1.8-.9-.5-1.6-1.1-2.1-1.7s-.7-1.4-.7-2.3c-.1-1.2.4-2.3 1.5-3z"/><path class="st4" d="M168.2 25.6c1.1-.7 2.6-1.1 4.7-1.1h24.2v-3.7h-23.9c-2 0-3.7.3-5.3 1-1.5.7-2.7 1.6-3.6 2.8-.8 1.2-1.3 2.6-1.3 4.1 0 2.1.6 3.8 1.9 5.1 1.2 1.4 3.3 2.6 6.1 3.7 2 .8 3.5 1.5 4.4 1.9.9.5 1.6 1 2.1 1.6s.7 1.4.7 2.5c0 2.9-3.1 4.4-7.2 4.4h-21.6l2 3.6h19.5c3.6 0 6.3-.7 8.1-2.1 1.8-1.4 2.8-3.4 2.8-6 0-1.6-.3-2.9-.9-4-.6-1.1-1.5-2-2.6-2.7-1.2-.7-2.7-1.5-4.7-2.3-1.8-.7-3.2-1.3-4.1-1.8-.9-.5-1.6-1.1-2.1-1.7s-.7-1.4-.7-2.3c-.1-1.2.5-2.3 1.5-3z"/></g></g></g><path d="M196.3 24.6h-9.4c-2.1 0-3.6.4-4.7 1.1-1 .8-1.6 1.8-1.5 3.1 0 .9.2 1.7.7 2.3.5.6 1.2 1.2 2.1 1.7s2.3 1.1 4.1 1.8c2 .8 3.5 1.6 4.7 2.3 1.1.7 2 1.6 2.6 2.7.6 1.1.9 2.4.9 4 0 2.6-1 4.6-2.8 6-1.8 1.4-4.5 2.1-8.1 2.1H159c3.4 4.4 8.2 7.7 14 9.1 13.7 3.4 27.5-4.9 30.9-18.6 1.5-6.2.7-12.4-2-17.6h-5.6z"/><path d="M170.2 48.1c4.1 0 6.2-1.5 6.2-4.4 0-1.1-.2-1.9-.7-2.5s-1.2-1.1-2.1-1.6c-.9-.4-2.4-1.1-4.4-1.9-2.8-1.1-4.9-2.3-6.1-3.7-1.3-1.3-1.9-3-1.9-5.1 0-1.5.5-2.9 1.3-4.1.9-1.2 2.1-2.1 3.6-2.8 1.6-.7 3.3-1 5.3-1H199.7c-3.4-4.6-8.4-8.2-14.4-9.7-13.7-3.4-27.5 4.9-30.9 18.6-1.6 6.4-.6 12.8 2.3 18.2h13.5z"/><path class="st6" d="M291.1 41.4c0 2.5-.7 4.4-2.1 5.7-1.5 1.3-3.4 1.9-5.8 1.9-2.5 0-4.4-.6-5.8-1.9-1.4-1.3-2.1-3.2-2.1-5.7V22.7H271v18.6c0 3.7 1 6.5 3.1 8.6 2.1 2 5.2 3.1 9.1 3.1 4 0 7-1 9.1-3.1 2.1-2.1 3.1-5 3.1-8.6V22.7h-4.3v18.7zM321.3 37.2c1.1-1.5 1.7-3.3 1.7-5.5 0-2.9-.8-5.2-2.5-6.7s-4.1-2.3-7.3-2.3h-11.9v29.6h4.3V40.6h6.5l6.3 11.7h4.5l-6.5-12c2.1-.6 3.7-1.6 4.9-3.1zm-4.3-1.5c-1.1.9-2.6 1.3-4.5 1.3h-6.9V26.4h6.9c2 0 3.5.4 4.6 1.2 1.1.8 1.6 2.2 1.6 4.1 0 1.8-.6 3.1-1.7 4zM358.1 52.3h19.5v-3.6h-15.2v-9.4h11.4v-3.6h-11.4v-9.4h15.2v-3.6h-19.5zM258.5 24.1a17.8 17.8 0 00-8-1.9c-3 0-5.6.6-8 1.9-2.4 1.3-4.2 3.2-5.6 5.5-1.3 2.3-2 5-2 8s.6 5.7 2 8 3.2 4.1 5.6 5.4c2.4 1.3 5.1 2 8 1.9 3 0 5.6-.6 8-1.9 2.4-1.2 4.2-3.1 5.6-5.4 1.3-2.3 2-5 2-8s-.6-5.7-2-8c-1.4-2.4-3.2-4.2-5.6-5.5zm1.7 19.6c-.9 1.7-2.3 3.1-4 4s-3.6 1.4-5.8 1.5c-2.1 0-4-.5-5.7-1.4-1.7-.9-3-2.3-4-4-1-1.8-1.5-3.8-1.5-6.1s.5-4.3 1.5-6.1c1-1.7 2.4-3.1 4.1-4 1.7-.9 3.6-1.4 5.7-1.4s4 .5 5.7 1.4c1.7.9 3 2.3 4 4 1 1.7 1.5 3.7 1.5 6s-.5 4.4-1.5 6.1zM227.1 38.2c-1.1-.7-2.7-1.5-4.7-2.3-1.8-.7-3.2-1.3-4.1-1.8-.9-.5-1.6-1.1-2.1-1.7-.5-.7-.7-1.5-.7-2.4 0-1.3.5-2.4 1.6-3.1 1.1-.7 2.7-1.1 4.7-1.1 2.6 0 5 .6 7.5 1.7v-3.7c-1.2-.5-2.5-.9-3.8-1.2-1.3-.3-2.8-.4-4.4-.4-2 0-3.8.3-5.3 1-1.6.7-2.8 1.6-3.6 2.8-.9 1.2-1.3 2.5-1.3 4.1 0 2 .7 3.7 1.9 5.1 1.3 1.3 3.3 2.6 6.1 3.7 2 .8 3.5 1.4 4.4 1.9.9.4 1.6 1 2.1 1.6.5.7.7 1.5.7 2.5 0 2.9-2.2 4.4-6.6 4.4-3.2 0-6.1-.6-8.8-1.9v3.9c1 .5 2.3.9 4 1.2 1.6.3 3.3.5 5 .5 3.6 0 6.3-.7 8.1-2.1 1.9-1.4 2.8-3.4 2.8-6 0-1.6-.3-2.9-.9-4-.6-1.1-1.4-2-2.6-2.7zM342.7 49.2c-2.2 0-4.2-.5-6-1.4-1.8-.9-3.2-2.2-4.2-4-1-1.8-1.5-3.8-1.5-6.1s.5-4.4 1.5-6.1c1-1.7 2.3-3.1 4.1-4 1.8-.9 3.8-1.4 6.1-1.4 4.1 0 7.3 1.1 9.8 3.3v-4.2c-2.7-2.1-6.1-3.1-10.2-3.1-3 0-5.7.6-8.1 1.9-2.3 1.2-4.2 3.1-5.5 5.4s-2 5-2 8.1c0 3.1.7 5.8 2 8.1s3.1 4.1 5.5 5.4c2.4 1.2 5.1 1.9 8.1 2.1 4.5 0 8.1-1.1 10.6-3.2v-4.2c-1.4 1.2-2.9 2-4.6 2.6-1.6.5-3.5.8-5.6.8zM59.2 25.1c-1.9-1.6-4.4-2.4-7.6-2.4H40.2v29.6h4.3V41h7.1c3.2 0 5.8-.8 7.6-2.3 1.9-1.5 2.8-3.8 2.8-6.8 0-2.9-1-5.2-2.8-6.8zm-3.3 11.1c-1.2.8-2.7 1.2-4.7 1.2v.1h-6.6V26.4h6.6c2 0 3.5.4 4.7 1.2 1.1.8 1.7 2.2 1.7 4.3 0 2.1-.5 3.5-1.7 4.3zM31.6 38.2c-1.1-.7-2.7-1.5-4.7-2.3-1.8-.7-3.2-1.3-4.1-1.8-.9-.5-1.6-1.1-2.1-1.7-.5-.7-.7-1.5-.7-2.4 0-1.3.5-2.4 1.6-3.1 1.1-.7 2.7-1.1 4.7-1.1 2.6 0 5 .6 7.5 1.7v-3.7c-1.2-.5-2.5-.9-3.8-1.2-1.3-.3-2.8-.4-4.4-.4-2 0-3.8.3-5.3 1-1.6.7-2.8 1.6-3.6 2.8-.9 1.2-1.3 2.5-1.3 4.1 0 2 .7 3.7 1.9 5.1 1.3 1.3 3.3 2.6 6.1 3.7 2 .8 3.5 1.4 4.4 1.9.9.4 1.6 1 2.1 1.6.5.7.7 1.5.7 2.5 0 2.9-2.2 4.4-6.6 4.4-3.2 0-6.1-.6-8.8-1.9v3.9c1 .5 2.3.9 4 1.2 1.6.3 3.3.5 5 .5 3.6 0 6.3-.7 8.1-2.1 1.9-1.4 2.8-3.4 2.8-6 0-1.6-.3-2.9-.9-4-.6-1.1-1.4-2-2.6-2.7zM124.9 26.4h9.2-.1v26h4.4v-26h9.2v-3.6h-22.7zM88.4 24.1a17.8 17.8 0 00-8-1.9c-3 0-5.6.6-8 1.9-2.4 1.3-4.2 3.2-5.6 5.5-1.3 2.3-2 5-2 8s.6 5.7 2 8 3.2 4.1 5.6 5.4c2.4 1.3 5.1 2 8 1.9 3 0 5.6-.6 8-1.9 2.4-1.2 4.2-3.1 5.6-5.4 1.3-2.3 2-5 2-8s-.6-5.7-2-8c-1.4-2.4-3.2-4.2-5.6-5.5zm1.7 19.6c-.9 1.7-2.3 3.1-4 4-1.7.9-3.6 1.4-5.8 1.5-2.1 0-4-.5-5.7-1.4-1.7-.9-3-2.3-4-4-1-1.8-1.5-3.8-1.5-6.1s.5-4.3 1.5-6.1c1-1.7 2.4-3.1 4.1-4 1.7-.9 3.6-1.4 5.7-1.4s4 .5 5.7 1.4c1.7.9 3 2.3 4 4 1 1.7 1.5 3.7 1.5 6s-.5 4.4-1.5 6.1zM121.2 37.2c1.1-1.5 1.7-3.3 1.7-5.5 0-2.9-.8-5.2-2.5-6.7s-4.1-2.3-7.3-2.3h-11.9v29.6h4.3V40.6h6.5l6.3 11.7h4.5l-6.5-12c2.1-.6 3.7-1.6 4.9-3.1zm-4.4-1.5c-1.1.9-2.6 1.3-4.5 1.3h-6.9V26.4h6.9c2 0 3.5.4 4.6 1.2 1.1.8 1.6 2.2 1.6 4.1 0 1.8-.6 3.1-1.7 4z"/><path class="st4" d="M170.1 51.7h14.8c3.6 0 6.3-.7 8.1-2.1 1.8-1.4 2.8-3.4 2.8-6 0-1.6-.3-2.9-.9-4-.6-1.1-1.5-2-2.6-2.7-1.2-.7-2.7-1.5-4.7-2.3-1.8-.7-3.2-1.3-4.1-1.8s-1.6-1.1-2.1-1.7c-.5-.6-.7-1.4-.7-2.3-.1-1.3.5-2.3 1.5-3.1 1.1-.7 2.6-1.1 4.7-1.1h15c-.6-1.3-1.4-2.5-2.2-3.6h-28.3c-2 0-3.7.3-5.3 1-1.5.7-2.7 1.6-3.6 2.8-.8 1.2-1.3 2.6-1.3 4.1 0 2.1.6 3.8 1.9 5.1 1.2 1.4 3.3 2.6 6.1 3.7 2 .8 3.5 1.5 4.4 1.9.9.5 1.6 1 2.1 1.6s.7 1.4.7 2.5c0 2.9-2.1 4.4-6.2 4.4h-13.6c.7 1.3 1.5 2.5 2.3 3.6h11.2z"/></svg>