<svg version="1.0" id="Layer_1" xmlns="http://www.w3.org/2000/svg" xmlns:xlink="http://www.w3.org/1999/xlink" x="0" y="0" viewBox="0 0 55.1 54.4" xml:space="preserve">
  <style>
    .st0{display:none}.st1{display:inline}.st2{fill:#287abf}.st2,.st3{display:inline}.st3,.st4{fill:#fff}
  </style>
  <g id="Layer_5" class="st0">
    <path class="st1" d="M-152.1-9.1h390v72.7h-390V-9.1z"/>
  </g>
  <g id="_x31__x5F_black_x5F_B" class="st0">
    <circle class="st2" cx="26.3" cy="27.4" r="25.5"/>
    <path class="st3" d="M30.4 14.4H16.5l-3 3-2.5 4.8 8.9 6.2 4.8 4.9-3.1 9.4 16.6-2.1 2.2-4.9v-5l-6.7-4.8-8-3.2 1.5-5.5 3.2-2.8z"/>
    <g class="st1">
      <defs>
        <circle id="SVGID_1_" cx="26.3" cy="27.4" r="25.5"/>
      </defs>
      <clipPath id="SVGID_2_">
        <use xlink:href="#SVGID_1_" overflow="visible"/>
      </clipPath>
      <g clip-path="url(#SVGID_2_)">
        <path d="M14.6 17.1c1.1-.7 2.6-1.1 4.7-1.1h24.2v-3.7H18.6c-2 0-3.7.3-5.3 1-1.5.7-2.7 1.6-3.6 2.8-.8 1.2-1.3 2.6-1.3 4.1 0 2.1.6 3.8 1.9 5.1 1.2 1.4 3.3 2.6 6.1 3.7 2 .8 3.5 1.5 4.4 1.9.9.5 1.6 1 2.1 1.6.5.6.7 1.4.7 2.5 0 2.9-2.1 4.4-6.2 4.4H-.2l2 3.6h15.5c3.6 0 6.3-.7 8.1-2.1 1.8-1.4 2.8-3.4 2.8-6 0-1.6-.3-2.9-.9-4-.6-1.1-1.5-2-2.6-2.7-1.2-.7-2.7-1.5-4.7-2.3-1.8-.7-3.2-1.3-4.1-1.8-.9-.5-1.6-1.1-2.1-1.7-.5-.6-.7-1.4-.7-2.3-.1-1.2.4-2.3 1.5-3z"/>
        <path d="M29.5 17.1c1.1-.7 2.6-1.1 4.7-1.1h17.2v-3.7H33.5c-2 0-3.7.3-5.3 1-1.5.7-2.7 1.6-3.6 2.8-.8 1.2-1.3 2.6-1.3 4.1 0 2.1.6 3.8 1.9 5.1 1.2 1.4 3.3 2.6 6.1 3.7 2 .8 3.5 1.5 4.4 1.9.9.5 1.6 1 2.1 1.6.5.6.7 1.4.7 2.5 0 2.9-2.1 4.4-6.2 4.4H11.7V43h20.5c3.6 0 6.3-.7 8.1-2.1 1.8-1.4 2.8-3.4 2.8-6 0-1.6-.3-2.9-.9-4-.6-1.1-1.5-2-2.6-2.7-1.2-.7-2.7-1.5-4.7-2.3-1.8-.7-3.2-1.3-4.1-1.8-.9-.5-1.6-1.1-2.1-1.7-.5-.6-.7-1.4-.7-2.3-.2-1.2.4-2.3 1.5-3z"/>
      </g>
    </g>
  </g>
  <g id="_x31__x5F_black_x5F_A" class="st0">
    <circle class="st3" cx="26" cy="27" r="25.5"/>
    <path class="st2" d="M30.1 13.9h-14l-3 3-2.5 4.9 9 6.2 4.8 4.8-3.1 9.5 16.6-2.1 2.2-4.9v-5l-6.7-4.8-8-3.2 1.5-5.5 3.2-2.9z"/>
    <g class="st1">
      <defs>
        <circle id="SVGID_3_" cx="26" cy="27" r="25.5"/>
      </defs>
      <clipPath id="SVGID_4_">
        <use xlink:href="#SVGID_3_" overflow="visible"/>
      </clipPath>
      <g clip-path="url(#SVGID_4_)">
        <path d="M14.3 16.6c1.1-.7 2.6-1.1 4.7-1.1h24.2v-3.6H18.3c-2 0-3.7.3-5.3 1-1.5.7-2.7 1.6-3.6 2.8-.8 1.2-1.3 2.6-1.3 4.1 0 2.1.6 3.8 1.9 5.1 1.2 1.4 3.3 2.6 6.1 3.7 2 .8 3.5 1.5 4.4 1.9.9.5 1.6 1 2.1 1.6.5.6.7 1.4.7 2.5 0 2.9-2.1 4.4-6.2 4.4H-.5l2 3.6H17c3.6 0 6.3-.7 8.1-2.1 1.8-1.4 2.8-3.4 2.8-6 0-1.6-.3-2.9-.9-4-.6-1.1-1.5-2-2.6-2.7-1.2-.7-2.7-1.5-4.7-2.3-1.8-.7-3.2-1.3-4.1-1.8-.9-.5-1.6-1.1-2.1-1.7s-.7-1.4-.7-2.3c-.1-1.3.4-2.3 1.5-3.1z"/>
        <path d="M29.1 16.6c1.1-.7 2.6-1.1 4.7-1.1H51v-3.6H33.1c-2 0-3.7.3-5.3 1-1.5.7-2.7 1.6-3.6 2.8-.8 1.2-1.3 2.6-1.3 4.1 0 2.1.6 3.8 1.9 5.1 1.2 1.4 3.3 2.6 6.1 3.7 2 .8 3.5 1.5 4.4 1.9.9.5 1.6 1 2.1 1.6.5.6.7 1.4.7 2.5 0 2.9-2.1 4.4-6.2 4.4H11.3v3.6h20.5c3.6 0 6.3-.7 8.1-2.1 1.8-1.4 2.8-3.4 2.8-6 0-1.6-.3-2.9-.9-4-.6-1.1-1.5-2-2.6-2.7-1.2-.7-2.7-1.5-4.7-2.3-1.8-.7-3.2-1.3-4.1-1.8-.9-.5-1.6-1.1-2.1-1.7s-.7-1.4-.7-2.3c-.1-1.3.5-2.3 1.5-3.1z"/>
      </g>
    </g>
  </g>
  <g id="_x32__x5F_Black" class="st0">
    <circle class="st2" cx="26" cy="25.5" r="28.5"/>
    <g class="st1">
      <defs>
        <circle id="SVGID_5_" cx="26" cy="25.5" r="28.5"/>
      </defs>
      <clipPath id="SVGID_6_">
        <use xlink:href="#SVGID_5_" overflow="visible"/>
      </clipPath>
      <g clip-path="url(#SVGID_6_)">
        <path d="M29.5 12.2h-9.4l-7 4 1.6 5.8 8.9 6.2 4.8 2.9-3.1 9.4 8.7-1 6.7-4.6-3.2-5.4-7.8-4.7-5.8-5.4.8-4.5 4.8-2.7z"/>
        <path d="M28 14.9c1.1-.7 2.6-1.1 4.7-1.1h24.2v-3.7H33c-2 0-3.7.3-5.3 1-1.5.7-2.7 1.6-3.6 2.8-.8 1.2-1.3 2.6-1.3 4.1 0 2.1.6 3.8 1.9 5.1 1.2 1.4 3.3 2.6 6.1 3.7 2 .8 3.5 1.5 4.4 1.9.9.5 1.6 1 2.1 1.6s.7 1.4.7 2.5c0 2.9-3.1 4.4-7.2 4.4H13.2l2 3.6h15.5c3.6 0 6.3-.7 8.1-2.1 1.8-1.4 2.8-3.4 2.8-6 0-1.6-.3-2.9-.9-4-.6-1.1-1.5-2-2.6-2.7-1.2-.7-2.7-1.5-4.7-2.3-1.8-.7-3.2-1.3-4.1-1.8-.9-.5-1.6-1.1-2.1-1.7s-.7-1.4-.7-2.3c-.1-1.3.5-2.3 1.5-3z"/>
        <path d="M15.5 14.9c1.1-.7 2.6-1.1 4.7-1.1h24.2v-3.7H20.5c-2 0-3.7.3-5.3 1-1.5.7-2.7 1.6-3.6 2.8-.8 1.2-1.3 2.6-1.3 4.1 0 2.1.6 3.8 1.9 5.1 1.2 1.4 3.3 2.6 6.1 3.7 2 .8 3.5 1.5 4.4 1.9.9.5 1.6 1 2.1 1.6s.7 1.4.7 2.5c0 2.9-3.1 4.4-7.2 4.4H-3.3l2 3.6h19.5c3.6 0 6.3-.7 8.1-2.1 1.8-1.4 2.8-3.4 2.8-6 0-1.6-.3-2.9-.9-4-.6-1.1-1.5-2-2.6-2.7-1.2-.7-2.7-1.5-4.7-2.3-1.8-.7-3.2-1.3-4.1-1.8-.9-.5-1.6-1.1-2.1-1.7s-.7-1.4-.7-2.3c-.1-1.3.4-2.3 1.5-3z"/>
      </g>
    </g>
  </g>
  <g id="_x33_" class="st0">
    <g class="st1">
      <path id="reuse-0" d="M54.4 27.5C54.4 43.2 41.7 56 25.9 56 10.2 56-2.6 43.3-2.6 27.5-2.6 11.8 10.1-1 25.9-1s28.5 12.7 28.5 28.5z"/>
    </g>
    <path class="st2" d="M35.1 15.1l-22-1.7-3 3-2.5 4.9 9 6.2 4.8 4.8-3.1 9.5H37l5.9-7.5v-5L30.4 25v-4.3l1.3-7.3 3.4 1.7z"/>
    <g class="st1">
      <path class="st4" d="M11.3 16.1c1.1-.7 2.6-1.1 4.7-1.1h24.2v-3.7H15.3c-2 0-3.7.3-5.3 1-1.5.7-2.7 1.6-3.6 2.8-.8 1.2-1.3 2.6-1.3 4.1 0 2.1.6 3.8 1.9 5.1 1.2 1.4 3.3 2.6 6.1 3.7 2 .8 3.5 1.5 4.4 1.9.9.5 1.6 1 2.1 1.6.5.6.7 1.4.7 2.5 0 2.9-2.1 4.4-6.2 4.4H-3.5l2 3.6H14c3.6 0 6.3-.7 8.1-2.1 1.8-1.4 2.8-3.4 2.8-6 0-1.6-.3-2.9-.9-4-.6-1.1-1.5-2-2.6-2.7-1.2-.7-2.7-1.5-4.7-2.3-1.8-.7-3.2-1.3-4.1-1.8-.9-.5-1.6-1.1-2.1-1.7s-.7-1.4-.7-2.3c-.1-1.2.4-2.2 1.5-3z"/>
      <path class="st4" d="M32.1 16.1c1.1-.7 2.6-1.1 4.7-1.1H54v-3.7H36.1c-2 0-3.7.3-5.3 1-1.5.7-2.7 1.6-3.6 2.8-.8 1.2-1.3 2.6-1.3 4.1 0 2.1.6 3.8 1.9 5.1 1.2 1.4 3.3 2.6 6.1 3.7 2 .8 3.5 1.5 4.4 1.9.9.5 1.6 1 2.1 1.6.5.6.7 1.4.7 2.5 0 2.9-2.1 4.4-6.2 4.4H14.3V42h20.5c3.6 0 6.3-.7 8.1-2.1 1.8-1.4 2.8-3.4 2.8-6 0-1.6-.3-2.9-.9-4-.6-1.1-1.5-2-2.6-2.7-1.2-.7-2.7-1.5-4.7-2.3-1.8-.7-3.2-1.3-4.1-1.8-.9-.5-1.6-1.1-2.1-1.7s-.7-1.4-.7-2.3c-.1-1.2.5-2.2 1.5-3z"/>
    </g>
  </g>
  <g id="_x32_" class="st0">
    <circle class="st1" cx="26.6" cy="27.8" r="28.5"/>
    <path class="st3" d="M30.2 13.8h-9.4l-7 4 1.5 5.9 8.9 6.1 4.8 2.9-3.1 9.4 8.8-.9 6.6-4.7-3.1-5.3-7.9-4.8-5.7-5.4.7-4.5 4.9-2.7z"/>
    <g class="st1">
      <defs>
        <circle id="SVGID_7_" cx="26.6" cy="27.8" r="28.5"/>
      </defs>
      <clipPath id="SVGID_8_">
        <use xlink:href="#SVGID_7_" overflow="visible"/>
      </clipPath>
      <g clip-path="url(#SVGID_8_)">
        <path class="st4" d="M28.7 16.5c1.1-.7 2.6-1.1 4.7-1.1h24.2v-3.7H33.7c-2 0-3.7.3-5.3 1-1.5.7-2.7 1.6-3.6 2.8-.8 1.2-1.3 2.6-1.3 4.1 0 2.1.6 3.8 1.9 5.1 1.2 1.4 3.3 2.6 6.1 3.7 2 .8 3.5 1.5 4.4 1.9.9.5 1.6 1 2.1 1.6.5.6.7 1.4.7 2.5 0 2.9-3.1 4.4-7.2 4.4H13.9l2 3.6h15.5c3.6 0 6.3-.7 8.1-2.1 1.8-1.4 2.8-3.4 2.8-6 0-1.6-.3-2.9-.9-4-.6-1.1-1.5-2-2.6-2.7-1.2-.7-2.7-1.5-4.7-2.3-1.8-.7-3.2-1.3-4.1-1.8-.9-.5-1.6-1.1-2.1-1.7s-.7-1.4-.7-2.3c-.1-1.2.4-2.3 1.5-3z"/>
        <path class="st4" d="M16.1 16.5c1.1-.7 2.6-1.1 4.7-1.1H45v-3.7H21.1c-2 0-3.7.3-5.3 1-1.5.7-2.7 1.6-3.6 2.8-.8 1.2-1.3 2.6-1.3 4.1 0 2.1.6 3.8 1.9 5.1 1.2 1.4 3.3 2.6 6.1 3.7 2 .8 3.5 1.5 4.4 1.9.9.5 1.6 1 2.1 1.6.5.6.7 1.4.7 2.5 0 2.9-3.1 4.4-7.2 4.4H-2.7l2 3.6h19.5c3.6 0 6.3-.7 8.1-2.1 1.8-1.4 2.8-3.4 2.8-6 0-1.6-.3-2.9-.9-4-.6-1.1-1.5-2-2.6-2.7-1.2-.7-2.7-1.5-4.7-2.3-1.8-.7-3.2-1.3-4.1-1.8-.9-.5-1.6-1.1-2.1-1.7s-.7-1.4-.7-2.3c-.1-1.2.5-2.3 1.5-3z"/>
      </g>
    </g>
  </g>
  <path d="M44.2 15.5h-9.4c-2.1 0-3.6.4-4.7 1.1-1 .8-1.6 1.8-1.5 3.1 0 .9.2 1.7.7 2.3.5.6 1.2 1.2 2.1 1.7.9.5 2.3 1.1 4.1 1.8 2 .8 3.5 1.6 4.7 2.3 1.1.7 2 1.6 2.6 2.7.6 1.1.9 2.4.9 4 0 2.6-1 4.6-2.8 6s-4.5 2.1-8.1 2.1H6.9c3.4 4.4 8.2 7.7 14 9.1 13.7 3.4 27.5-4.9 30.9-18.6 1.5-6.2.7-12.4-2-17.6h-5.6z"/>
  <path d="M18.1 39c4.1 0 6.2-1.5 6.2-4.4 0-1.1-.2-1.9-.7-2.5-.5-.6-1.2-1.1-2.1-1.6-.9-.4-2.4-1.1-4.4-1.9-2.8-1.1-4.9-2.3-6.1-3.7-1.3-1.3-1.9-3-1.9-5.1 0-1.5.5-2.9 1.3-4.1.9-1.2 2.1-2.1 3.6-2.8 1.6-.7 3.3-1 5.3-1h28.3c-3.4-4.6-8.4-8.2-14.4-9.7C19.5-1.2 5.7 7.1 2.3 20.8.7 27.2 1.7 33.6 4.6 39h13.5z"/>
  <path class="st4" d="M18 42.6h14.8c3.6 0 6.3-.7 8.1-2.1 1.8-1.4 2.8-3.4 2.8-6 0-1.6-.3-2.9-.9-4-.6-1.1-1.5-2-2.6-2.7-1.2-.7-2.7-1.5-4.7-2.3-1.8-.7-3.2-1.3-4.1-1.8-.9-.5-1.6-1.1-2.1-1.7s-.7-1.4-.7-2.3c-.1-1.3.5-2.3 1.5-3.1 1.1-.7 2.6-1.1 4.7-1.1h15c-.6-1.3-1.4-2.5-2.2-3.6H19.3c-2 0-3.7.3-5.3 1-1.5.7-2.7 1.6-3.6 2.8-.8 1.2-1.3 2.6-1.3 4.1 0 2.1.6 3.8 1.9 5.1 1.2 1.4 3.3 2.6 6.1 3.7 2 .8 3.5 1.5 4.4 1.9.9.5 1.6 1 2.1 1.6.5.6.7 1.4.7 2.5 0 2.9-2.1 4.4-6.2 4.4H4.5c.7 1.3 1.5 2.5 2.3 3.6H18z"/>
</svg>