<?xml version="1.0" standalone="no"?>
<!DOCTYPE svg PUBLIC "-//W3C//DTD SVG 20010904//EN"
 "http://www.w3.org/TR/2001/REC-SVG-20010904/DTD/svg10.dtd">
<svg version="1.0" xmlns="http://www.w3.org/2000/svg"
 width="880.000000pt" height="880.000000pt" viewBox="0 0 880.000000 880.000000"
 preserveAspectRatio="xMidYMid meet">
<metadata>
Created by potrace 1.11, written by Peter Selinger 2001-2013
</metadata>
<g transform="translate(0.000000,880.000000) scale(0.100000,-0.100000)"
fill="#000000" stroke="none">
<path d="M4068 8505 c-2 -2 -43 -6 -93 -10 -141 -11 -221 -21 -360 -46 -33 -6
-71 -13 -85 -15 -14 -2 -35 -6 -47 -9 -13 -3 -32 -7 -42 -9 -88 -20 -242 -59
-266 -69 -16 -6 -35 -12 -42 -13 -20 -3 -116 -35 -138 -45 -12 -6 -27 -11 -35
-13 -8 -2 -24 -7 -35 -11 -11 -4 -76 -30 -145 -57 -142 -56 -450 -207 -450
-220 0 -5 -4 -6 -10 -3 -5 3 -10 1 -10 -4 0 -6 -5 -11 -11 -11 -10 0 -140 -74
-164 -93 -5 -4 -49 -33 -97 -65 -87 -58 -297 -215 -348 -262 -15 -14 -61 -54
-101 -90 -193 -172 -437 -443 -570 -635 -18 -27 -40 -56 -46 -63 -7 -7 -25
-34 -40 -60 -15 -26 -30 -49 -33 -52 -12 -9 -140 -228 -140 -238 0 -6 -4 -12
-8 -14 -23 -9 -242 -492 -242 -533 0 -8 -4 -15 -10 -15 -5 0 -10 -8 -10 -17 0
-10 -9 -42 -20 -71 -28 -74 -77 -238 -95 -322 -2 -8 -4 -15 -5 -15 -2 0 -6
-17 -14 -55 -3 -14 -8 -36 -12 -50 -3 -14 -7 -35 -9 -47 -2 -11 -6 -29 -9 -40
-3 -10 -8 -36 -11 -58 -4 -22 -8 -47 -10 -55 -2 -8 -7 -37 -11 -65 -3 -27 -8
-59 -10 -70 -2 -11 -7 -45 -10 -75 -3 -30 -8 -68 -9 -85 -15 -135 -26 -565
-15 -565 3 0 4 -24 4 -52 -1 -29 2 -63 7 -75 5 -13 4 -25 -2 -28 -5 -4 -7 -10
-4 -15 5 -8 10 -41 19 -130 6 -50 22 -158 41 -265 4 -23 33 -160 41 -190 3
-11 7 -31 10 -45 2 -14 7 -32 11 -40 3 -8 7 -22 9 -30 2 -13 11 -42 51 -180 2
-8 4 -16 4 -18 -1 -1 6 -19 15 -40 8 -20 17 -44 19 -52 20 -76 142 -361 217
-508 21 -39 37 -75 36 -80 -2 -7 42 -102 52 -112 10 -10 41 -65 47 -82 3 -10
9 -18 14 -18 5 0 9 -4 9 -9 0 -9 113 -187 144 -226 42 -54 56 -74 56 -81 0 -4
17 -24 38 -43 21 -20 58 -61 82 -91 25 -30 49 -60 55 -66 5 -7 37 -42 70 -80
108 -122 266 -276 390 -381 105 -89 280 -223 290 -223 3 0 18 -11 33 -25 15
-14 33 -25 40 -25 7 0 15 -7 18 -15 4 -8 10 -13 14 -10 4 3 13 -2 20 -10 7 -8
24 -21 39 -28 14 -8 55 -32 91 -54 107 -66 326 -178 467 -237 138 -59 414
-159 420 -152 3 2 16 -2 30 -9 15 -8 30 -12 35 -9 4 3 8 1 8 -4 0 -5 6 -9 13
-9 10 0 51 -10 167 -38 149 -37 379 -77 510 -90 36 -3 85 -9 110 -12 25 -3 84
-6 132 -7 49 0 88 -4 88 -7 0 -4 17 -3 37 1 20 5 42 6 47 2 14 -8 49 -8 63 1
6 4 14 3 18 -3 4 -6 11 -7 17 -4 5 3 58 8 116 9 59 2 134 6 167 9 108 11 160
17 190 23 17 3 46 7 65 9 48 5 77 10 141 23 31 7 69 14 85 17 134 23 553 147
566 168 4 6 8 8 8 4 0 -4 16 0 35 8 19 8 36 13 37 12 3 -1 17 5 120 51 26 11
50 21 53 21 4 0 214 104 315 155 19 10 38 23 42 29 4 6 8 7 8 2 0 -5 8 -2 18
6 9 9 31 23 47 32 17 9 44 26 60 36 17 11 38 23 48 26 9 4 17 10 17 14 0 4 14
13 30 20 17 7 30 16 30 20 0 4 10 12 23 17 18 9 147 100 182 130 6 5 33 26 60
47 183 138 433 385 615 606 34 41 70 85 80 97 10 12 16 24 13 27 -4 3 -2 6 3
6 6 0 35 35 64 77 30 43 58 80 62 81 4 2 8 10 8 18 0 8 5 14 10 14 6 0 10 5
10 12 0 6 11 26 25 44 14 18 25 37 25 42 0 6 3 12 8 14 8 3 29 39 63 106 12
23 25 42 30 42 5 0 9 7 9 15 0 8 13 36 28 62 16 26 50 93 76 148 26 55 51 107
55 116 50 91 207 551 236 689 2 8 4 15 5 15 1 0 3 9 4 20 2 11 6 34 10 50 15
66 19 91 20 113 1 12 3 22 6 22 3 0 6 8 6 18 1 16 7 58 19 122 2 14 7 48 10
75 4 28 8 61 10 75 18 136 24 263 24 475 0 272 -13 443 -49 640 -5 28 -11 68
-14 90 -5 33 -15 85 -40 195 -2 8 -9 35 -16 60 -7 25 -14 56 -17 69 -2 13 -8
31 -12 40 -5 9 -9 19 -9 24 0 4 -15 53 -33 110 -18 56 -33 104 -34 107 -5 16
-18 49 -30 75 -7 17 -19 46 -26 65 -28 78 -136 318 -154 340 -6 8 -20 35 -30
60 -10 25 -25 52 -32 61 -7 9 -10 19 -6 22 3 4 2 7 -4 7 -6 0 -13 8 -16 18 -8
23 -43 82 -101 172 -27 41 -48 77 -47 79 2 2 -1 7 -6 10 -5 3 -26 31 -48 61
-59 84 -117 162 -145 195 -14 17 -38 48 -55 69 -80 103 -419 450 -494 506 -18
13 -48 38 -66 55 -18 16 -43 38 -56 47 -19 14 -83 62 -194 145 -45 34 -246
163 -255 163 -5 0 -10 5 -10 10 0 6 -4 10 -9 10 -5 0 -47 21 -93 48 -99 57
-252 132 -267 132 -6 0 -11 5 -11 10 0 6 -7 10 -15 10 -8 0 -42 13 -75 29 -33
16 -60 28 -60 26 0 -2 -24 7 -53 20 -54 23 -219 84 -247 90 -8 2 -27 8 -42 14
-16 6 -28 7 -28 4 0 -4 -5 -2 -12 5 -7 7 -21 12 -33 12 -12 0 -25 4 -30 9 -6
5 -29 12 -53 15 -23 3 -52 10 -63 17 -11 6 -23 9 -25 6 -3 -3 -25 1 -49 9 -25
7 -64 16 -87 19 -24 4 -46 9 -51 12 -4 2 -24 7 -45 10 -20 2 -46 6 -57 8 -11
1 -42 6 -70 10 -27 3 -61 8 -75 11 -14 2 -52 7 -85 10 -33 3 -78 7 -100 10
-44 6 -582 14 -587 9z"/>
</g>
</svg>
